<?xml version="1.0" encoding="UTF-8" standalone="no"?>
<!DOCTYPE svg PUBLIC "-//W3C//DTD SVG 1.1//EN" "http://www.w3.org/Graphics/SVG/1.1/DTD/svg11.dtd">
<svg width="100%" height="100%" viewBox="0 0 2045 2401" version="1.1" xmlns="http://www.w3.org/2000/svg" xmlns:xlink="http://www.w3.org/1999/xlink" xml:space="preserve" xmlns:serif="http://www.serif.com/" style="fill-rule:evenodd;clip-rule:evenodd;stroke-linejoin:round;stroke-miterlimit:2;">
    <g transform="matrix(1,0,0,1,-247.529,-1009.3)">
        <g id="thunderstorm-sharp" transform="matrix(0.52089,0,0,0.52089,1157.67,1466.05)">
            <path d="M405.84,136.9C399.153,105.213 382.463,76.495 358.24,55C330.196,29.912 293.858,16.03 256.229,16.03C195.889,16.03 140.949,51.726 116.43,106.86C60.5,110.16 16,156.65 16,213.33C16,272.15 63.91,320 122.8,320L195.11,320L176,416L224,416L224,496L336,352L292.49,352L300.49,320L404.33,320C454.419,319.799 495.522,278.53 495.522,228.441C495.522,178.921 455.349,137.916 405.84,136.9Z" style="fill:rgb(255,229,65);fill-rule:nonzero;"/>
        </g>
        <g id="_050-folder-plus" serif:id="050-folder-plus" transform="matrix(13.3956,0,0,13.3956,1183.72,1891.21)">
            <path d="M9,4L7,2L0,2L0,15L16,15L16,4L9,4ZM11,11L9,11L9,13L7,13L7,11L5,11L5,9L7,9L7,7L9,7L9,9L11,9L11,11Z" style="fill:rgb(255,229,65);fill-rule:nonzero;"/>
        </g>
        <g id="tasks" transform="matrix(0.422349,0,0,0.422349,2065.17,3168.76)">
            <path d="M139.61,35.5C137.359,33.241 134.299,31.971 131.11,31.971C127.921,31.971 124.861,33.241 122.61,35.5L58.93,98.81L36.23,76.69C33.979,74.431 30.919,73.161 27.73,73.161C24.541,73.161 21.481,74.431 19.23,76.69L3.53,92.41C1.271,94.661 0.001,97.721 0.001,100.91C0.001,104.099 1.271,107.159 3.53,109.41L51.12,156.81C56.025,161.472 63.825,161.472 68.73,156.81L84.32,141.19L156.52,69C161.171,64.345 161.212,56.704 156.61,52L139.61,35.5ZM139.61,194.69C137.359,192.431 134.299,191.161 131.11,191.161C127.921,191.161 124.861,192.431 122.61,194.69L58.93,258.41L36.23,236.31C33.979,234.051 30.919,232.781 27.73,232.781C24.541,232.781 21.481,234.051 19.23,236.31L3.53,252C1.271,254.251 0.001,257.311 0.001,260.5C0.001,263.689 1.271,266.749 3.53,269L51,316.5C55.901,321.161 63.699,321.161 68.6,316.5L84.3,300.81L156.5,228.59C161.134,223.967 161.174,216.362 156.59,211.69L139.61,194.69ZM64,368C37.51,368 15.41,389.5 15.41,416C15.41,442.5 37.53,464 64,464C90.332,464 112,442.332 112,416C112,389.668 90.332,368 64,368ZM496,384L208,384C199.223,384 192,391.223 192,400L192,432C192,440.777 199.223,448 208,448L496,448C504.777,448 512,440.777 512,432L512,400C512,391.223 504.777,384 496,384ZM496,64L208,64C199.223,64 192,71.223 192,80L192,112C192,120.777 199.223,128 208,128L496,128C504.777,128 512,120.777 512,112L512,80C512,71.223 504.777,64 496,64ZM496,224L208,224C199.223,224 192,231.223 192,240L192,272C192,280.777 199.223,288 208,288L496,288C504.777,288 512,280.777 512,272L512,240C512,231.223 504.777,224 496,224Z" style="fill:rgb(255,229,65);fill-rule:nonzero;"/>
        </g>
        <g id="action_add_task" transform="matrix(11.1111,0,0,11.1111,1640.86,2266.97)">
            <path d="M22,5.18L10.59,16.6L6.35,12.36L7.76,10.95L10.59,13.78L20.59,3.78L22,5.18ZM12,20C7.59,20 4,16.41 4,12C4,7.59 7.59,4 12,4C13.57,4 15.04,4.46 16.28,5.25L17.73,3.8C16.1,2.67 14.13,2 12,2C6.48,2 2,6.48 2,12C2,17.52 6.48,22 12,22C13.73,22 15.36,21.56 16.78,20.78L15.28,19.28C14.28,19.74 13.17,20 12,20ZM19,15L16,15L16,17L19,17L19,20L21,20L21,17L24,17L24,15L21,15L21,12L19,12L19,15Z" style="fill:rgb(255,229,65);fill-rule:nonzero;"/>
        </g>
        <g id="archive" transform="matrix(13.3277,0,0,13.3277,1479.28,1148.81)">
            <path d="M13.981,2L6.018,2C6.018,2 5.022,2 5.022,3L14.977,3C14.977,2 13.981,2 13.981,2ZM16.968,5C16.968,4 15.973,4 15.973,4L4.027,4C4.027,4 3.032,4 3.032,5L3.032,6L16.968,6L16.968,5ZM18.958,6L18.37,5.408L18.37,7L1.63,7L1.63,5.408L1.041,6C0.452,6.592 0.03,6.75 0.267,8C0.503,9.246 1.646,16.076 1.816,17C2.002,18.014 3.033,18 3.033,18L16.969,18C16.969,18 17.999,18.014 18.186,17C18.356,16.076 19.498,9.246 19.735,8C19.97,6.75 19.548,6.592 18.958,6ZM14,11.997C14,12.551 13.551,13 12.997,13L7.003,13C6.449,13 6,12.551 6,11.997L6,10L7,10L7,12L13,12L13,10L14,10L14,11.997Z" style="fill:rgb(255,229,65);fill-rule:nonzero;"/>
        </g>
        <g id="area-graph" transform="matrix(13.3277,0,0,13.3277,830.508,2452.56)">
            <path d="M20,2L20,18L0.32,18C0.002,18 -0.096,17.791 0.104,17.535L4.573,11.787C4.772,11.531 5.126,11.504 5.362,11.725L6.781,13.059C7.016,13.28 7.353,13.237 7.528,12.963L10.575,8.223C10.75,7.95 11.084,7.911 11.316,8.133L13.487,10.229C13.719,10.454 14.046,10.409 14.211,10.129L19.344,2.344C19.51,2.062 19.75,2 20,2Z" style="fill:rgb(255,229,65);fill-rule:nonzero;"/>
        </g>
        <g id="clipboard" transform="matrix(13.3277,0,0,13.3277,830.516,2049.26)">
            <path d="M15.6,2L14.4,5L5.6,5L4.4,2C3.629,2 3,2.629 3,3.4L3,18.6C3,19.37 3.629,20 4.399,20L15.599,20C16.369,20 16.999,19.369 16.999,18.6L16.999,3.4C17,2.629 16.369,2 15.6,2ZM13.6,4L14.5,2L12.319,2L11.6,0L8.4,0L7.68,2L5.5,2L6.399,4L13.6,4Z" style="fill:rgb(255,229,65);fill-rule:nonzero;"/>
        </g>
        <g id="cog" transform="matrix(13.3277,0,0,13.3277,1234.74,2504)">
            <path d="M16.783,10C16.783,8.951 17.429,8.125 18.4,7.557C18.224,6.973 17.993,6.412 17.708,5.885C16.619,6.17 15.738,5.744 14.997,5.002C14.256,4.262 14.029,3.381 14.314,2.291C13.787,2.006 13.226,1.773 12.642,1.6C12.074,2.57 11.047,3.215 10,3.215C8.952,3.215 7.926,2.57 7.357,1.6C6.772,1.773 6.213,2.006 5.686,2.291C5.971,3.381 5.745,4.262 5.002,5.002C4.262,5.744 3.381,6.17 2.291,5.885C2.006,6.412 1.774,6.973 1.6,7.557C2.57,8.125 3.215,8.951 3.215,10C3.215,11.047 2.57,12.074 1.6,12.643C1.775,13.227 2.006,13.787 2.291,14.315C3.381,14.03 4.262,14.256 5.002,14.997C5.743,15.739 5.971,16.62 5.686,17.708C6.213,17.993 6.773,18.226 7.358,18.401C7.926,17.428 8.953,16.784 10.001,16.784C11.048,16.784 12.075,17.429 12.644,18.401C13.228,18.225 13.788,17.993 14.316,17.708C14.031,16.62 14.257,15.739 14.999,14.997C15.74,14.257 16.621,13.831 17.71,14.114C17.995,13.587 18.227,13.028 18.402,12.442C17.429,11.873 16.783,11.047 16.783,10ZM10,13.652C7.982,13.652 6.347,12.017 6.347,10C6.347,7.982 7.983,6.346 10,6.346C12.018,6.346 13.652,7.983 13.652,10C13.652,12.018 12.018,13.652 10,13.652Z" style="fill:rgb(255,229,65);fill-rule:nonzero;"/>
        </g>
        <g id="download" transform="matrix(13.3277,0,0,13.3277,1663.08,2623.96)">
            <path d="M15,7L12,7L12,1L8,1L8,7L5,7L10,12L15,7ZM19.338,13.532C19.128,13.308 17.727,11.809 17.327,11.418C17.062,11.159 16.683,11 16.285,11L14.528,11L17.592,13.994L14.048,13.994C13.946,13.994 13.854,14.046 13.808,14.127L12.992,16L7.008,16L6.192,14.127C6.146,14.046 6.053,13.994 5.952,13.994L2.408,13.994L5.471,11L3.715,11C3.318,11 2.939,11.159 2.673,11.418C2.273,11.81 0.872,13.309 0.662,13.532C0.173,14.053 -0.096,14.468 0.032,14.981L0.593,18.055C0.721,18.569 1.284,18.991 1.845,18.991L18.157,18.991C18.718,18.991 19.281,18.569 19.409,18.055L19.97,14.981C20.096,14.468 19.828,14.053 19.338,13.532Z" style="fill:rgb(255,229,65);fill-rule:nonzero;"/>
        </g>
        <g id="images" transform="matrix(13.3277,0,0,13.3277,476.001,1791.4)">
            <path d="M17.125,6.17L15.079,0.535C14.928,0.119 14.484,-0.102 14.09,0.043L0.492,5.006C0.098,5.15 -0.101,5.603 0.051,6.019L2.207,11.96L2.207,8.777C2.207,7.339 3.355,6.17 4.767,6.17L8.36,6.17L12.645,3.162L15.124,6.17L17.125,6.17ZM19.238,8L4.767,8C4.347,8 4.005,8.334 4.005,8.777L4.005,18.197C4.006,18.641 4.348,19 4.767,19L19.238,19C19.658,19 20,18.641 20,18.197L20,8.777C20,8.334 19.658,8 19.238,8ZM18,17L6,17L6,15L7.984,10.982L10.752,14.418L13.35,11.756L16.688,10.551L18,14L18,17Z" style="fill:rgb(255,229,65);fill-rule:nonzero;"/>
        </g>
        <g id="image-inverted" transform="matrix(13.3277,0,0,13.3277,281.948,2275.83)">
            <path d="M18,3L2,3C1.447,3 1,3.447 1,4L1,16C1,16.552 1.447,17 2,17L18,17C18.553,17 19,16.552 19,16L19,4C19,3.448 18.553,3 18,3ZM13.25,6.5C13.94,6.5 14.5,7.06 14.5,7.75C14.5,8.44 13.94,9 13.25,9C12.56,9 12,8.44 12,7.75C12,7.06 12.56,6.5 13.25,6.5ZM4,14L7.314,6.381L11.083,12.483L14.314,10.878L16,14L4,14Z" style="fill:rgb(255,229,65);fill-rule:nonzero;"/>
        </g>
        <g id="laptop" transform="matrix(13.3277,0,0,13.3277,295.276,2615.97)">
            <path d="M19.754,15.631C19.507,15.26 18,13 18,13L18,4C18,2.898 17.1,2 16,2L4,2C2.899,2 2,2.898 2,4L2,13C2,13 0.493,15.26 0.246,15.631C0,16 0,16.213 0,16.5L0,17C0,17.5 0.5,18 0.999,18L19.001,18C19.5,18 20,17.5 20,17L20,16.5C20,16.213 20,16 19.754,15.631ZM7,16L7.6,15L12.4,15L13,16L7,16ZM16,12L4,12L4,4L16,4L16,12Z" style="fill:rgb(255,229,65);fill-rule:nonzero;"/>
        </g>
        <g id="lifebuoy" transform="matrix(13.3277,0,0,13.3277,737.221,2850.53)">
            <path d="M16.788,3.212C13.039,-0.537 6.961,-0.537 3.213,3.212C-0.537,6.962 -0.537,13.04 3.211,16.788C6.961,20.538 13.039,20.538 16.789,16.788C20.537,13.039 20.537,6.961 16.788,3.212ZM6.748,13.252C4.951,11.455 4.951,8.543 6.748,6.747C8.543,4.951 11.457,4.951 13.254,6.747C15.051,8.544 15.049,11.456 13.254,13.252C11.457,15.049 8.545,15.049 6.748,13.252ZM15.347,12.879C16.315,11.08 16.316,8.92 15.347,7.12L17.13,6.16C18.419,8.551 18.419,11.45 17.132,13.838L15.347,12.879ZM13.839,2.869L12.878,4.653C11.079,3.686 8.919,3.686 7.122,4.653L6.161,2.87C8.551,1.582 11.448,1.582 13.839,2.869ZM2.87,6.16L4.654,7.121C3.686,8.919 3.686,11.078 4.653,12.877L2.869,13.838C1.581,11.449 1.582,8.551 2.87,6.16ZM6.159,17.129L7.12,15.346C8.919,16.315 11.08,16.315 12.879,15.346L13.84,17.131C11.448,18.418 8.55,18.418 6.159,17.129Z" style="fill:rgb(255,229,65);fill-rule:nonzero;"/>
        </g>
        <g id="list" transform="matrix(13.3277,0,0,13.3277,689.054,1068.84)">
            <path d="M14.4,9L8.6,9C8.048,9 8,9.447 8,10C8,10.553 8.048,11 8.6,11L14.4,11C14.952,11 15,10.553 15,10C15,9.447 14.952,9 14.4,9ZM16.4,14L8.6,14C8.048,14 8,14.447 8,15C8,15.553 8.048,16 8.6,16L16.4,16C16.952,16 17,15.553 17,15C17,14.447 16.952,14 16.4,14ZM8.6,6L16.4,6C16.952,6 17,5.553 17,5C17,4.447 16.952,4 16.4,4L8.6,4C8.048,4 8,4.447 8,5C8,5.553 8.048,6 8.6,6ZM5.4,9L3.6,9C3.048,9 3,9.447 3,10C3,10.553 3.048,11 3.6,11L5.4,11C5.952,11 6,10.553 6,10C6,9.447 5.952,9 5.4,9ZM5.4,14L3.6,14C3.048,14 3,14.447 3,15C3,15.553 3.048,16 3.6,16L5.4,16C5.952,16 6,15.553 6,15C6,14.447 5.952,14 5.4,14ZM5.4,4L3.6,4C3.048,4 3,4.447 3,5C3,5.553 3.048,6 3.6,6L5.4,6C5.952,6 6,5.553 6,5C6,4.447 5.952,4 5.4,4Z" style="fill:rgb(255,229,65);fill-rule:nonzero;"/>
        </g>
        <g id="login" transform="matrix(13.3277,0,0,13.3277,1242.74,2850.54)">
            <path d="M14,10L8,5L8,8L1,8L1,12L8,12L8,15L14,10ZM17,17L9,17L9,19L17,19C18.1,19 19,18.1 19,17L19,3C19,1.9 18.1,1 17,1L9,1L9,3L17,3L17,17Z" style="fill:rgb(255,229,65);fill-rule:nonzero;"/>
        </g>
        <g id="log-out" transform="matrix(13.3277,0,0,13.3277,1676.42,3020.27)">
            <path d="M19,10L13,5L13,8L6,8L6,12L13,12L13,15L19,10ZM3,3L11,3L11,1L3,1C1.9,1 1,1.9 1,3L1,17C1,18.1 1.9,19 3,19L11,19L11,17L3,17L3,3Z" style="fill:rgb(255,229,65);fill-rule:nonzero;"/>
        </g>
        <g id="new-message" transform="matrix(13.3277,0,0,13.3277,1226.83,2155.88)">
            <path d="M18.174,1.826C17.072,0.724 16.092,1.049 16.092,1.049L7.453,9.681L6,14L10.317,12.546L18.951,3.908C18.951,3.908 19.275,2.928 18.174,1.826ZM10.605,11.605L10.134,12.075L8.661,12.575C8.557,12.335 8.427,12.098 8.163,11.835C7.899,11.571 7.663,11.441 7.423,11.337L7.923,9.864L8.394,9.394C8.394,9.394 9.17,9.305 9.931,10.067C10.693,10.828 10.605,11.605 10.605,11.605ZM16,17L3,17L3,4L8,4L10,2L3,2C1.9,2 1,2.9 1,4L1,17C1,18.1 1.9,19 3,19L16,19C17.1,19 18,18.1 18,17L18,10L16,12L16,17Z" style="fill:rgb(255,229,65);fill-rule:nonzero;"/>
        </g>
        <g id="phone" transform="matrix(13.3277,0,0,13.3277,2051.82,2051.14)">
            <path d="M11.229,11.229C9.646,12.811 7.812,14.325 7.087,13.6C6.05,12.563 5.41,11.659 3.122,13.498C0.835,15.336 2.592,16.562 3.597,17.566C4.757,18.726 9.081,17.628 13.355,13.355C17.628,9.081 18.723,4.757 17.562,3.597C16.557,2.591 15.337,0.835 13.499,3.122C11.66,5.409 12.563,6.049 13.602,7.087C14.324,7.812 12.811,9.646 11.229,11.229Z" style="fill:rgb(255,229,65);fill-rule:nonzero;"/>
        </g>
        <g id="save" transform="matrix(13.3277,0,0,13.3277,2051.76,2837.21)">
            <path d="M15.173,2L4,2C2.899,2 2,2.9 2,4L2,16C2,17.1 2.899,18 4,18L16,18C17.101,18 18,17.1 18,16L18,5.127L15.173,2ZM14,8C14,8.549 13.55,9 13,9L7,9C6.45,9 6,8.549 6,8L6,3L14,3L14,8ZM13,4L11,4L11,8L13,8L13,4Z" style="fill:rgb(255,229,65);fill-rule:nonzero;"/>
        </g>
        <g id="rocket" transform="matrix(13.3277,0,0,13.3277,1936.29,1820.59)">
            <path d="M11.933,13.069C11.933,13.069 18.992,7.975 18.209,2.145C18.192,2.018 18.15,1.932 18.097,1.877C18.043,1.822 17.96,1.779 17.834,1.762C12.137,0.961 7.16,8.184 7.16,8.184C2.842,7.667 3.156,8.528 1.186,13.26C0.809,14.162 1.42,14.473 2.09,14.219C2.76,13.967 4.238,13.408 4.238,13.408L6.828,16.056C6.828,16.056 6.282,17.57 6.035,18.255C5.787,18.941 6.09,19.566 6.973,19.181C11.597,17.165 12.439,17.487 11.933,13.069ZM12.942,7.153C12.344,6.54 12.344,5.549 12.942,4.936C13.54,4.325 14.509,4.325 15.108,4.936C15.706,5.547 15.706,6.539 15.108,7.153C14.509,7.764 13.539,7.764 12.942,7.153Z" style="fill:rgb(255,229,65);fill-rule:nonzero;"/>
        </g>
        <g id="stopwatch" transform="matrix(13.3277,0,0,13.3277,269.966,1048.18)">
            <path d="M7.376,6.745C6.929,7.02 8.573,10.987 8.974,11.633C9.324,12.202 10.067,12.375 10.632,12.027C11.2,11.675 11.377,10.933 11.027,10.367C10.63,9.719 7.822,6.469 7.376,6.745ZM7.041,2.402C7.969,2.079 8.963,1.9 10,1.9C11.037,1.9 12.031,2.079 12.959,2.402C13.288,2.516 13.724,2.287 13.531,1.791C13.39,1.431 13.254,1.079 13.199,0.936C13.068,0.597 12.599,0.317 12.395,0.271C11.623,0.097 10.823,0 10,0C9.177,0 8.377,0.097 7.604,0.271C7.4,0.317 6.932,0.597 6.801,0.936C6.746,1.079 6.609,1.431 6.469,1.791C6.276,2.287 6.712,2.517 7.041,2.402ZM19.098,3.186C18.906,2.956 18.702,2.731 18.485,2.514C18.269,2.297 18.044,2.094 17.815,1.901C17.662,1.772 17.212,1.667 16.927,1.952C16.643,2.237 15.279,3.599 15.279,3.599C15.681,3.887 16.072,4.204 16.434,4.565C16.796,4.926 17.111,5.317 17.4,5.72C17.4,5.72 18.763,4.358 19.047,4.073C19.333,3.787 19.228,3.338 19.098,3.186ZM10,2.9C5.525,2.9 1.899,6.526 1.899,11C1.899,15.475 5.525,19.101 10,19.101C14.473,19.101 18.1,15.475 18.1,11C18.1,6.527 14.473,2.9 10,2.9ZM10,17.101C6.632,17.101 3.9,14.37 3.9,11.001C3.9,7.632 6.631,4.901 10,4.901C13.369,4.901 16.101,7.632 16.101,11.001C16.101,14.369 13.369,17.101 10,17.101Z" style="fill:rgb(255,229,65);fill-rule:nonzero;"/>
        </g>
        <g id="play-circle" transform="matrix(0.422349,0,0,0.422349,1581.62,1864.93)">
            <path d="M256,8C119,8 8,119 8,256C8,393 119,504 256,504C393,504 504,393 504,256C504,119 393,8 256,8ZM371.7,280L195.7,381C179.9,389.8 160,378.5 160,360L160,152C160,133.6 179.8,122.2 195.7,131L371.7,238C388.1,247.2 388.1,270.9 371.7,280Z" style="fill:rgb(255,229,65);fill-rule:nonzero;"/>
        </g>
        <g id="_279-pause" serif:id="279-pause" transform="matrix(13.3956,0,0,13.3956,1970.71,1579.77)">
            <path d="M8,0C3.582,0 0,3.582 0,8C0,12.418 3.582,16 8,16C12.418,16 16,12.418 16,8C16,3.582 12.418,0 8,0ZM8,14.5C4.41,14.5 1.5,11.59 1.5,8C1.5,4.41 4.41,1.5 8,1.5C11.59,1.5 14.5,4.41 14.5,8C14.5,11.59 11.59,14.5 8,14.5ZM5,5L7,5L7,11L5,11L5,5ZM9,5L11,5L11,11L9,11L9,5Z" style="fill:rgb(255,229,65);fill-rule:nonzero;"/>
        </g>
        <g id="stop-circle" transform="matrix(0.422349,0,0,0.422349,2075.04,2424.42)">
            <path d="M256,8C119,8 8,119 8,256C8,393 119,504 256,504C393,504 504,393 504,256C504,119 393,8 256,8ZM352,336C352,344.8 344.8,352 336,352L176,352C167.2,352 160,344.8 160,336L160,176C160,167.2 167.2,160 176,160L336,160C344.8,160 352,167.2 352,176L352,336Z" style="fill:rgb(255,229,65);fill-rule:nonzero;"/>
        </g>
        <g id="th-menu" transform="matrix(12.7347,0,0,10.6667,1786.8,1016.18)">
            <path d="M19,17L5,17C3.897,17 3,17.897 3,19C3,20.103 3.897,21 5,21L19,21C20.103,21 21,20.103 21,19C21,17.897 20.103,17 19,17ZM19,10L5,10C3.897,10 3,10.897 3,12C3,13.103 3.897,14 5,14L19,14C20.103,14 21,13.103 21,12C21,10.897 20.103,10 19,10ZM19,3L5,3C3.897,3 3,3.897 3,5C3,6.103 3.897,7 5,7L19,7C20.103,7 21,6.103 21,5C21,3.897 20.103,3 19,3Z" style="fill:rgb(255,229,65);fill-rule:nonzero;"/>
        </g>
        <g id="tablet" transform="matrix(13.3277,0,0,13.3277,295.276,2996.08)">
            <path d="M16,0L4,0C2.9,0 2,0.899 2,2L2,18C2,19.1 2.9,20 4,20L16,20C17.101,20 18,19.1 18,18L18,2C18,0.899 17.101,0 16,0ZM10,19C9.31,19 8.75,18.553 8.75,18C8.75,17.447 9.31,17 10,17C10.689,17 11.25,17.447 11.25,18C11.25,18.553 10.689,19 10,19ZM16,16L4,16L4,2L16,2L16,16Z" style="fill:rgb(255,229,65);fill-rule:nonzero;"/>
        </g>
        <g id="thunder-cloud" transform="matrix(13.3277,0,0,13.3277,1916.95,1280.8)">
            <path d="M15.213,6.641C14.937,6.641 14.667,6.664 14.404,6.707C13.748,4.562 11.715,3 9.309,3C6.37,3 3.989,5.328 3.989,8.199C3.989,8.457 4.009,8.709 4.046,8.955C3.904,8.939 3.762,8.928 3.617,8.928C1.619,8.928 0,10.512 0,12.463C0,14.416 1.619,16 3.617,16L15.213,16C17.856,16 20,13.904 20,11.32C20,8.734 17.856,6.641 15.213,6.641ZM11.371,10.951C10.877,11.654 8.757,13.84 8.667,13.931C8.563,14.06 8.276,14.275 8.004,14.097C7.925,14.046 7.832,13.945 7.832,13.743C7.832,13.55 7.92,13.352 7.93,13.331L8.963,11.044C8.77,10.966 8.436,10.833 8.178,10.72L8.11,10.691C7.848,10.58 7.522,10.441 7.522,10.084C7.522,9.912 7.603,9.711 7.771,9.475C8.266,8.77 10.385,6.586 10.476,6.493C10.579,6.366 10.866,6.151 11.139,6.327C11.217,6.378 11.31,6.481 11.31,6.681C11.31,6.874 11.222,7.072 11.212,7.095L10.178,9.38C10.373,9.458 10.706,9.593 10.965,9.704L11.033,9.733C11.295,9.844 11.621,9.983 11.621,10.342C11.621,10.514 11.539,10.713 11.371,10.951Z" style="fill:rgb(255,229,65);fill-rule:nonzero;"/>
        </g>
        <g id="trash" transform="matrix(13.3277,0,0,13.3277,1509.95,1457.86)">
            <path d="M3.389,7.113L4.49,18.021C4.551,18.482 6.777,19.998 10,20C13.225,19.998 15.451,18.482 15.511,18.021L16.613,7.113C14.929,8.055 12.412,8.5 10,8.5C7.59,8.5 5.072,8.055 3.389,7.113ZM13.168,1.51L12.309,0.559C11.977,0.086 11.617,0 10.916,0L9.085,0C8.385,0 8.024,0.086 7.693,0.559L6.834,1.51C4.264,1.959 2.4,3.15 2.4,4.029L2.4,4.199C2.4,5.746 5.803,7 10,7C14.198,7 17.601,5.746 17.601,4.199L17.601,4.029C17.601,3.15 15.738,1.959 13.168,1.51ZM12.07,4.34L11,3L9,3L7.932,4.34L6.232,4.34C6.232,4.34 8.094,2.119 8.343,1.818C8.533,1.588 8.727,1.5 8.979,1.5L11.022,1.5C11.275,1.5 11.469,1.588 11.659,1.818C11.907,2.119 13.77,4.34 13.77,4.34L12.07,4.34Z" style="fill:rgb(255,229,65);fill-rule:nonzero;"/>
        </g>
        <g id="user" transform="matrix(13.3277,0,0,13.3277,1106.88,1006.49)">
            <path d="M7.725,2.146C6.709,2.902 6.436,4.099 6.486,4.736C6.55,5.515 6.708,6.529 6.708,6.529C6.708,6.529 6.395,6.699 6.395,7.383C6.504,9.1 7.078,8.359 7.196,9.112C7.48,10.926 8.129,10.603 8.129,11.593C8.129,13.242 7.449,14.013 5.326,14.927C3.196,15.845 1,17 1,19L1,20L19,20L19,19C19,17 16.803,15.845 14.672,14.928C12.549,14.014 11.871,13.244 11.871,11.594C11.871,10.604 12.518,10.927 12.803,9.113C12.922,8.36 13.495,9.101 13.606,7.384C13.606,6.7 13.292,6.53 13.292,6.53C13.292,6.53 13.45,5.516 13.513,4.737C13.578,3.92 13.115,2.176 11.213,1.641C10.88,1.301 10.655,0.76 11.679,0.217C9.439,0.112 8.918,1.284 7.725,2.146Z" style="fill:rgb(255,229,65);fill-rule:nonzero;"/>
        </g>
        <g id="user1" serif:id="user" transform="matrix(13.3277,0,0,13.3277,281.856,1429.84)">
            <path d="M7.725,2.146C6.709,2.902 6.436,4.099 6.486,4.736C6.55,5.515 6.708,6.529 6.708,6.529C6.708,6.529 6.395,6.699 6.395,7.383C6.504,9.1 7.078,8.359 7.196,9.112C7.48,10.926 8.129,10.603 8.129,11.593C8.129,13.242 7.449,14.013 5.326,14.927C3.196,15.845 1,17 1,19L1,20L19,20L19,19C19,17 16.803,15.845 14.672,14.928C12.549,14.014 11.871,13.244 11.871,11.594C11.871,10.604 12.518,10.927 12.803,9.113C12.922,8.36 13.495,9.101 13.606,7.384C13.606,6.7 13.292,6.53 13.292,6.53C13.292,6.53 13.45,5.516 13.513,4.737C13.578,3.92 13.115,2.176 11.213,1.641C10.88,1.301 10.655,0.76 11.679,0.217C9.439,0.112 8.918,1.284 7.725,2.146Z" style="fill:rgb(255,229,65);fill-rule:nonzero;"/>
        </g>
        <g id="user2" serif:id="user" transform="matrix(8.79973,0,0,8.79973,426.085,1475.59)">
            <path d="M7.725,2.146C6.709,2.902 6.436,4.099 6.486,4.736C6.55,5.515 6.708,6.529 6.708,6.529C6.708,6.529 6.395,6.699 6.395,7.383C6.504,9.1 7.078,8.359 7.196,9.112C7.48,10.926 8.129,10.603 8.129,11.593C8.129,13.242 7.449,14.013 5.326,14.927C3.196,15.845 1,17 1,19L1,20L19,20L19,19C19,17 16.803,15.845 14.672,14.928C12.549,14.014 11.871,13.244 11.871,11.594C11.871,10.604 12.518,10.927 12.803,9.113C12.922,8.36 13.495,9.101 13.606,7.384C13.606,6.7 13.292,6.53 13.292,6.53C13.292,6.53 13.45,5.516 13.513,4.737C13.578,3.92 13.115,2.176 11.213,1.641C10.88,1.301 10.655,0.76 11.679,0.217C9.439,0.112 8.918,1.284 7.725,2.146Z" style="fill:rgb(255,229,65);fill-rule:nonzero;"/>
        </g>
        <g id="chevron-with-circle-right" transform="matrix(13.3277,0,0,13.3277,1280.71,3148.21)">
            <path d="M11,10L8.698,7.494C8.502,7.296 8.502,6.975 8.698,6.776C8.894,6.579 9.213,6.579 9.408,6.776L12.215,9.64C12.411,9.839 12.411,10.16 12.215,10.357L9.408,13.221C9.213,13.42 8.894,13.419 8.698,13.221C8.502,13.024 8.502,12.703 8.698,12.504L11,10ZM10,0.4C15.302,0.4 19.6,4.698 19.6,10C19.6,15.303 15.302,19.6 10,19.6C4.698,19.6 0.4,15.303 0.4,10C0.4,4.698 4.698,0.4 10,0.4ZM10,18.354C14.613,18.354 18.354,14.614 18.354,10C18.354,5.386 14.613,1.646 10,1.646C5.385,1.646 1.646,5.386 1.646,10C1.645,14.614 5.385,18.354 10,18.354Z" style="fill:rgb(255,229,65);fill-rule:nonzero;"/>
        </g>
        <g id="chevron-with-circle-left" transform="matrix(13.3277,0,0,13.3277,898.539,3148.21)">
            <path d="M11.302,6.776C11.106,6.579 10.787,6.579 10.592,6.776L7.785,9.641C7.589,9.84 7.589,10.161 7.785,10.358L10.592,13.222C10.787,13.421 11.106,13.42 11.302,13.222C11.498,13.025 11.498,12.704 11.302,12.505L9,10L11.302,7.494C11.498,7.296 11.498,6.976 11.302,6.776ZM10,0.4C4.698,0.4 0.4,4.698 0.4,10C0.4,15.303 4.698,19.6 10,19.6C15.302,19.6 19.6,15.303 19.6,10C19.6,4.698 15.302,0.4 10,0.4ZM10,18.354C5.385,18.354 1.646,14.614 1.646,10C1.646,5.386 5.385,1.646 10,1.646C14.613,1.646 18.354,5.386 18.354,10C18.354,14.614 14.613,18.354 10,18.354Z" style="fill:rgb(255,229,65);fill-rule:nonzero;"/>
        </g>
        <g id="user-circle" transform="matrix(0.422349,0,0,0.422349,822.331,1721.03)">
            <path d="M248,8C111,8 0,119 0,256C0,393 111,504 248,504C385,504 496,393 496,256C496,119 385,8 248,8ZM248,104C296.6,104 336,143.4 336,192C336,240.6 296.6,280 248,280C199.4,280 160,240.6 160,192C160,143.4 199.4,104 248,104ZM248,448C189.3,448 136.7,421.4 101.5,379.8C120.3,344.4 157.1,320 200,320C202.4,320 204.8,320.4 207.1,321.1C220.1,325.3 233.7,328 248,328C262.3,328 276,325.3 288.9,321.1C291.2,320.4 293.6,320 296,320C338.9,320 375.7,344.4 394.5,379.8C359.3,421.4 306.7,448 248,448Z" style="fill:rgb(255,229,65);fill-rule:nonzero;"/>
        </g>
        <g id="add-user" transform="matrix(13.3277,0,0,13.3277,822.331,1363.59)">
            <path d="M15.989,19.129C16,17 13.803,15.74 11.672,14.822C9.549,13.908 8.871,13.138 8.871,11.488C8.871,10.499 9.519,10.821 9.803,9.007C9.923,8.255 10.495,8.995 10.605,7.278C10.605,6.594 10.292,6.424 10.292,6.424C10.292,6.424 10.451,5.411 10.513,4.631C10.577,3.814 10.115,2.071 8.212,1.536C7.88,1.195 7.655,0.654 8.679,0.112C6.439,0.008 5.918,1.18 4.725,2.042C3.71,2.798 3.436,3.995 3.485,4.632C3.55,5.412 3.708,6.425 3.708,6.425C3.708,6.425 3.394,6.595 3.394,7.279C3.504,8.997 4.078,8.256 4.197,9.008C4.481,10.822 5.13,10.5 5.13,11.489C5.13,13.139 4.918,13.699 2.794,14.613C0.663,15.53 0,17 0.011,19.129C0.014,19.766 0,20 0,20L16,20C16,20 15.986,19.766 15.989,19.129ZM17,10L17,7L15,7L15,10L12,10L12,12L15,12L15,15L17,15L17,12L20,12L20,10L17,10Z" style="fill:rgb(255,229,65);fill-rule:nonzero;"/>
        </g>
        <g id="gauge" transform="matrix(13.3277,0,0,13.3277,247.529,1998.38)">
            <path d="M8.127,13.6C7.438,14.797 7.902,15.78 8.859,16.332C9.815,16.885 10.9,16.797 11.591,15.6C12.28,14.405 16.638,3.735 16.259,3.516C15.88,3.297 8.817,12.404 8.127,13.6ZM10,6C10.438,6 10.864,6.037 11.281,6.109C11.719,5.56 12.209,4.955 12.686,4.381C11.834,4.135 10.934,4 10,4C4.393,4 0,8.729 0,14.766C0,15.137 0.016,15.508 0.049,15.869C0.098,16.42 0.589,16.824 1.133,16.777C1.684,16.726 2.09,16.242 2.041,15.691C2.014,15.389 2,15.076 2,14.766C2,9.85 5.514,6 10,6ZM17.219,7.25C16.94,8 16.645,8.764 16.385,9.424C17.4,10.894 18,12.738 18,14.766C18,15.082 17.985,15.401 17.957,15.709C17.907,16.26 18.312,16.746 18.862,16.797C18.892,16.799 18.923,16.801 18.954,16.801C19.465,16.801 19.902,16.41 19.949,15.891C19.982,15.521 20,15.143 20,14.766C20,11.812 18.947,9.176 17.219,7.25Z" style="fill:rgb(255,229,65);fill-rule:nonzero;"/>
        </g>
    </g>
</svg>
