<?xml version="1.0" encoding="UTF-8" standalone="no"?>
<!DOCTYPE svg PUBLIC "-//W3C//DTD SVG 1.1//EN" "http://www.w3.org/Graphics/SVG/1.1/DTD/svg11.dtd">
<svg width="100%" height="100%" viewBox="0 0 1890 545" version="1.1" xmlns="http://www.w3.org/2000/svg" xmlns:xlink="http://www.w3.org/1999/xlink" xml:space="preserve" xmlns:serif="http://www.serif.com/" style="fill-rule:evenodd;clip-rule:evenodd;stroke-linejoin:round;stroke-miterlimit:2;">
    <g transform="matrix(1,0,0,1,-295.276,-295.276)">
        <g transform="matrix(0.888442,0,0,0.888442,47.7104,-1188.18)">
            <g transform="matrix(2.28916,0,0,2.28916,205.807,1855.02)">
                <path d="M146.169,170.677C137.236,178.971 125.271,184.042 112.12,184.042L81.876,184.042C54.232,184.042 31.821,161.631 31.821,133.987L31.821,-30.892C31.821,-58.536 54.232,-80.946 81.876,-80.946L189.779,-80.946C204.557,-80.946 218.579,-74.416 228.09,-63.106C236.734,-52.826 240.848,-39.553 239.622,-26.289C253.643,-25.377 266.98,-21.635 278.995,-15.605C293.174,-22.585 309.121,-26.507 325.975,-26.507C347.873,-26.507 368.359,-19.927 385.424,-8.426C402.403,-19.842 422.834,-26.507 444.804,-26.507C448.922,-26.507 452.989,-26.275 456.993,-25.82L456.993,-30.892C456.993,-58.536 479.404,-80.946 507.048,-80.946L537.292,-80.946C545.403,-80.946 553.063,-79.017 559.839,-75.593C566.668,-79.037 574.344,-80.946 582.366,-80.946L613.975,-80.946C624.426,-80.946 634.291,-77.706 642.459,-72.052C650.546,-77.66 660.365,-80.946 670.951,-80.946L725.39,-80.946C740.243,-80.946 754.431,-78.038 767.411,-72.76C775.292,-77.936 784.721,-80.946 794.854,-80.946L849.293,-80.946C910.85,-80.946 961.007,-30.985 961.007,30.572C961.007,82.874 924.035,127.42 875.077,139.226C872.458,164.408 851.168,184.042 825.293,184.042L794.854,184.042C773.544,184.042 755.344,170.724 748.122,151.958C740.901,170.724 722.701,184.042 701.39,184.042L670.951,184.042C669.633,184.042 668.327,183.991 667.034,183.891C665.746,183.991 664.449,184.042 663.146,184.042L631.536,184.042C628.72,184.042 625.946,183.806 623.236,183.352C620.518,183.808 617.748,184.042 614.951,184.042L507.048,184.042C499.144,184.042 491.667,182.209 485.02,178.946C472.384,184.092 458.773,186.773 444.804,186.773C422.832,186.773 402.398,180.106 385.418,168.687C367.923,180.484 347.367,186.773 325.975,186.773C297.476,186.773 271.566,175.558 252.423,157.306C244.037,173.204 227.345,184.042 208.121,184.042L180.218,184.042C167.068,184.042 155.102,178.971 146.169,170.677Z" style="fill:rgb(0,87,165);"/>
            </g>
            <g transform="matrix(1,0,0,1,0,-915)">
                <g transform="matrix(2.28916,0,0,2.28916,199.33,2770.02)">
                    <path d="M81.876,133.987L112.12,133.987L112.12,66.67L151.535,66.67L156.803,36.426L112.12,36.426L112.12,-0.648L184.511,-0.648L189.779,-30.892L81.876,-30.892L81.876,133.987Z" style="fill:rgb(255,229,65);fill-rule:nonzero;"/>
                </g>
                <g transform="matrix(2.28916,0,0,2.28916,199.33,2770.02)">
                    <path d="M208.121,133.987L208.121,76.231C208.121,62.572 219.438,51.645 232.901,51.645C239.73,51.645 245.779,54.377 250.267,58.865L270.169,38.962C260.608,29.401 247.34,23.548 232.901,23.548C223.925,23.548 215.535,25.694 208.121,29.596L208.121,26.279L180.218,26.279L180.218,133.987L208.121,133.987Z" style="fill:rgb(255,229,65);fill-rule:nonzero;"/>
                </g>
                <g transform="matrix(2.28916,0,0,2.28916,199.33,2770.02)">
                    <path d="M325.975,23.548C294.755,23.548 269.389,48.913 269.389,80.133C269.389,111.353 294.755,136.719 325.975,136.719C340.999,136.719 355.243,130.865 365.975,120.133L346.072,100.231C340.609,105.889 333.194,108.621 325.975,108.621C320.706,108.621 315.633,107.255 311.535,104.718C317.194,101.401 380.414,64.913 380.414,64.913C373.389,40.523 351.536,23.548 325.975,23.548ZM297.487,80.328C297.487,64.523 310.17,51.645 325.975,51.645C331.243,51.645 336.121,53.011 340.414,55.548L297.487,80.328Z" style="fill:rgb(255,229,65);fill-rule:nonzero;"/>
                </g>
                <g transform="matrix(2.28916,0,0,2.28916,199.33,2770.02)">
                    <path d="M444.804,23.548C413.585,23.548 388.219,48.913 388.219,80.133C388.219,111.353 413.585,136.719 444.804,136.719C459.829,136.719 474.073,130.865 484.804,120.133L464.902,100.231C459.438,105.889 452.024,108.621 444.804,108.621C439.536,108.621 434.463,107.255 430.365,104.718C436.024,101.401 499.243,64.913 499.243,64.913C492.219,40.523 470.365,23.548 444.804,23.548ZM416.316,80.328C416.316,64.523 428.999,51.645 444.804,51.645C450.072,51.645 454.951,53.011 459.243,55.548L416.316,80.328Z" style="fill:rgb(255,229,65);fill-rule:nonzero;"/>
                </g>
                <g transform="matrix(2.28916,0,0,2.28916,199.33,2770.02)">
                    <path d="M578.463,88.523L598.17,22.182C614.171,76.035 619.244,92.816 631.536,133.987L663.146,133.987L613.975,-30.892L582.366,-30.892L546.853,88.523L578.463,88.523ZM507.048,-30.892L507.048,133.987L614.951,133.987L609.683,103.743L537.292,103.743L537.292,-30.892L507.048,-30.892Z" style="fill:rgb(255,229,65);fill-rule:nonzero;"/>
                </g>
                <g transform="matrix(2.28916,0,0,2.28916,199.33,2770.02)">
                    <path d="M701.39,133.987L701.39,92.231L725.39,92.231C759.147,92.231 787.049,64.328 787.049,30.572C787.049,-3.379 759.342,-30.892 725.39,-30.892L670.951,-30.892L670.951,133.987L701.39,133.987ZM701.39,61.792L701.39,-0.648L725.39,-0.648C742.756,-0.648 756.61,13.206 756.61,30.572C756.61,48.133 742.951,61.792 725.39,61.792L701.39,61.792Z" style="fill:rgb(255,229,65);fill-rule:nonzero;"/>
                </g>
                <g transform="matrix(2.28916,0,0,2.28916,199.33,2770.02)">
                    <path d="M825.293,133.987L825.293,92.231L849.293,92.231C883.049,92.231 910.952,64.328 910.952,30.572C910.952,-3.379 883.245,-30.892 849.293,-30.892L794.854,-30.892L794.854,133.987L825.293,133.987ZM825.293,61.792L825.293,-0.648L849.293,-0.648C866.659,-0.648 880.513,13.206 880.513,30.572C880.513,48.133 866.854,61.792 849.293,61.792L825.293,61.792Z" style="fill:rgb(255,229,65);fill-rule:nonzero;"/>
                </g>
            </g>
        </g>
    </g>
</svg>
