<?xml version="1.0" encoding="UTF-8" standalone="no"?>
<!DOCTYPE svg PUBLIC "-//W3C//DTD SVG 1.1//EN" "http://www.w3.org/Graphics/SVG/1.1/DTD/svg11.dtd">
<svg width="100%" height="100%" viewBox="0 0 200 200" version="1.1" xmlns="http://www.w3.org/2000/svg" xmlns:xlink="http://www.w3.org/1999/xlink" xml:space="preserve" xmlns:serif="http://www.serif.com/" style="fill-rule:evenodd;clip-rule:evenodd;stroke-linejoin:round;stroke-miterlimit:2;">
    <rect id="Tavola-da-disegno1" serif:id="Tavola da disegno1" x="0" y="0" width="200" height="200" style="fill:none;"/>
    <clipPath id="_clip1">
        <rect id="Tavola-da-disegno11" serif:id="Tavola da disegno1" x="0" y="0" width="200" height="200"/>
    </clipPath>
    <g clip-path="url(#_clip1)">
        <g id="action_add_task" transform="matrix(9.09091,0,0,9.09091,-18.1818,-9.09091)">
            <path d="M22,5.18L10.59,16.6L6.35,12.36L7.76,10.95L10.59,13.78L20.59,3.78L22,5.18ZM12,20C7.59,20 4,16.41 4,12C4,7.59 7.59,4 12,4C13.57,4 15.04,4.46 16.28,5.25L17.73,3.8C16.1,2.67 14.13,2 12,2C6.48,2 2,6.48 2,12C2,17.52 6.48,22 12,22C13.73,22 15.36,21.56 16.78,20.78L15.28,19.28C14.28,19.74 13.17,20 12,20ZM19,15L16,15L16,17L19,17L19,20L21,20L21,17L24,17L24,15L21,15L21,12L19,12L19,15Z" style="fill:rgb(45, 87, 166);fill-rule:nonzero;"/>
        </g>
    </g>
</svg>
