<?xml version="1.0" encoding="UTF-8" standalone="no"?>
<!DOCTYPE svg PUBLIC "-//W3C//DTD SVG 1.1//EN" "http://www.w3.org/Graphics/SVG/1.1/DTD/svg11.dtd">
<svg width="100%" height="100%" viewBox="0 0 200 200" version="1.1" xmlns="http://www.w3.org/2000/svg" xmlns:xlink="http://www.w3.org/1999/xlink" xml:space="preserve" xmlns:serif="http://www.serif.com/" style="fill-rule:evenodd;clip-rule:evenodd;stroke-linejoin:round;stroke-miterlimit:2;">
    <rect id="Tavola-da-disegno1" serif:id="Tavola da disegno1" x="0" y="0" width="200" height="200" style="fill:none;"/>
    <g>
        <g id="chevron-with-circle-right" transform="matrix(10.4167,0,0,10.4167,-4.16667,-4.16667)">
            <path d="M11,10L8.698,7.494C8.502,7.296 8.502,6.975 8.698,6.776C8.894,6.579 9.213,6.579 9.408,6.776L12.215,9.64C12.411,9.839 12.411,10.16 12.215,10.357L9.408,13.221C9.213,13.42 8.894,13.419 8.698,13.221C8.502,13.024 8.502,12.703 8.698,12.504L11,10ZM10,0.4C15.302,0.4 19.6,4.698 19.6,10C19.6,15.303 15.302,19.6 10,19.6C4.698,19.6 0.4,15.303 0.4,10C0.4,4.698 4.698,0.4 10,0.4ZM10,18.354C14.613,18.354 18.354,14.614 18.354,10C18.354,5.386 14.613,1.646 10,1.646C5.385,1.646 1.646,5.386 1.646,10C1.645,14.614 5.385,18.354 10,18.354Z" style="fill:rgb(45, 87, 166);fill-rule:nonzero;"/>
        </g>
    </g>
</svg>
