<?xml version="1.0" encoding="UTF-8" standalone="no"?>
<!DOCTYPE svg PUBLIC "-//W3C//DTD SVG 1.1//EN" "http://www.w3.org/Graphics/SVG/1.1/DTD/svg11.dtd">
<svg width="100%" height="100%" viewBox="0 0 200 200" version="1.1" xmlns="http://www.w3.org/2000/svg" xmlns:xlink="http://www.w3.org/1999/xlink" xml:space="preserve" xmlns:serif="http://www.serif.com/" style="fill-rule:evenodd;clip-rule:evenodd;stroke-linejoin:round;stroke-miterlimit:2;">
    <rect id="Tavola-da-disegno1" serif:id="Tavola da disegno1" x="0" y="0" width="200" height="200" style="fill:none;"/>
    <clipPath id="_clip1">
        <rect id="Tavola-da-disegno11" serif:id="Tavola da disegno1" x="0" y="0" width="200" height="200"/>
    </clipPath>
    <g clip-path="url(#_clip1)">
        <g id="clipboard" transform="matrix(10,0,0,10,0.00499407,-3.55271e-14)">
            <path d="M15.6,2L14.4,5L5.6,5L4.4,2C3.629,2 3,2.629 3,3.4L3,18.6C3,19.37 3.629,20 4.399,20L15.599,20C16.369,20 16.999,19.369 16.999,18.6L16.999,3.4C17,2.629 16.369,2 15.6,2ZM13.6,4L14.5,2L12.319,2L11.6,0L8.4,0L7.68,2L5.5,2L6.399,4L13.6,4Z" style="fill:rgb(45, 87, 166);fill-rule:nonzero;"/>
        </g>
    </g>
</svg>
