<?xml version="1.0" encoding="UTF-8" standalone="no"?>
<!DOCTYPE svg PUBLIC "-//W3C//DTD SVG 1.1//EN" "http://www.w3.org/Graphics/SVG/1.1/DTD/svg11.dtd">
<svg width="100%" height="100%" viewBox="0 0 200 200" version="1.1" xmlns="http://www.w3.org/2000/svg" xmlns:xlink="http://www.w3.org/1999/xlink" xml:space="preserve" xmlns:serif="http://www.serif.com/" style="fill-rule:evenodd;clip-rule:evenodd;stroke-linejoin:round;stroke-miterlimit:2;">
    <rect id="Tavola-da-disegno1" serif:id="Tavola da disegno1" x="0" y="0" width="200" height="200" style="fill:none;"/>
    <g transform="matrix(0.849017,0,0,0.849017,-1024.23,-1118.4)">
        <g>
            <g transform="matrix(1,0,0,1,-25.8438,25.7923)">
                <circle cx="1350" cy="1409.28" r="117.783" style="fill:rgb(128,210,255);"/>
            </g>
            <g transform="matrix(0.611299,0,0,0.611299,709.333,805.269)">
                <g transform="matrix(-0.898627,0,0,0.910352,2240.7,134.46)">
                    <path d="M1288.76,1075.87C1288.76,1075.87 1411.72,1095.52 1412.09,995.066C1412.35,925.384 1339.71,912.895 1303.53,915.694C1273.44,918.022 1211.94,935.021 1216.88,1002.55C1220.14,1047 1255.13,1061.9 1259.96,1065.03C1264.79,1068.16 1257.93,1088.16 1242.07,1099.26C1226.2,1110.36 1287.37,1103.99 1288.76,1075.87Z" style="fill:rgb(106,154,230);fill-opacity:0;"/>
                </g>
                <g transform="matrix(-0.898627,0,0,0.910352,2240.7,134.46)">
                    <path d="M1254.65,1069.6C1254.51,1070.65 1254.24,1072.37 1253.78,1073.69C1252.31,1077.89 1249.48,1082.86 1245.45,1087.37C1243.36,1089.72 1240.93,1091.95 1238.19,1093.87C1236.78,1094.86 1235.76,1095.8 1235.05,1096.62L1233.31,1099.44L1232.84,1101.13L1232.78,1103.12L1233.26,1105.15L1234.21,1106.9L1236.12,1108.79L1238.8,1110.15C1240.26,1110.65 1242.3,1111 1244.81,1111.03C1253.3,1111.14 1268.94,1107.6 1280.31,1099.93C1286.77,1095.58 1291.82,1089.95 1294.13,1083.16C1305.09,1084.21 1328.5,1085.37 1351.92,1079.55C1385.23,1071.28 1418.59,1049.43 1418.79,995.09C1419.07,920.353 1341.81,906.098 1303,909.101C1270.62,911.606 1204.88,930.343 1210.2,1003.03C1213.45,1047.41 1245.8,1064.64 1254.65,1069.6ZM1255.21,1096.41C1262.39,1088.44 1266.69,1079.25 1267.82,1072.85C1268.39,1069.65 1268.22,1066.93 1267.62,1064.94L1266.27,1062.09L1265.13,1060.7L1263.64,1059.5C1259.18,1056.61 1226.57,1043.08 1223.57,1002.07C1219,939.698 1276.26,924.439 1304.05,922.288C1337.61,919.692 1405.63,930.41 1405.39,995.042C1405.22,1041.15 1376.92,1059.7 1348.65,1066.72C1319.22,1074.03 1289.83,1069.34 1289.83,1069.34C1287.95,1069.04 1286.03,1069.54 1284.55,1070.73C1283.07,1071.91 1282.16,1073.66 1282.07,1075.54C1281.83,1080.39 1278.9,1084.21 1275.08,1087.3C1269.47,1091.83 1261.89,1094.81 1255.21,1096.41Z" style="fill:white;"/>
                </g>
                <g transform="matrix(1,0,0,1,-352.497,5.34065)">
                    <path d="M1288.76,1075.87C1288.76,1075.87 1411.72,1095.52 1412.09,995.066C1412.35,925.384 1339.71,912.895 1303.53,915.694C1273.44,918.022 1211.94,935.021 1216.88,1002.55C1220.14,1047 1255.13,1061.9 1259.96,1065.03C1264.79,1068.16 1257.93,1088.16 1242.07,1099.26C1226.2,1110.36 1287.37,1103.99 1288.76,1075.87Z" style="fill:white;"/>
                </g>
            </g>
        </g>
    </g>
</svg>
