<?xml version="1.0" encoding="UTF-8" standalone="no"?>
<!DOCTYPE svg PUBLIC "-//W3C//DTD SVG 1.1//EN" "http://www.w3.org/Graphics/SVG/1.1/DTD/svg11.dtd">
<svg width="100%" height="100%" viewBox="0 0 200 200" version="1.1" xmlns="http://www.w3.org/2000/svg" xmlns:xlink="http://www.w3.org/1999/xlink" xml:space="preserve" xmlns:serif="http://www.serif.com/" style="fill-rule:evenodd;clip-rule:evenodd;stroke-linejoin:round;stroke-miterlimit:2;">
    <rect id="Tavola-da-disegno1" serif:id="Tavola da disegno1" x="0" y="0" width="200" height="200" style="fill:none;"/>
    <g>
        <g id="action_add_task" transform="matrix(9.09091,0,0,9.09091,-18.1818,-9.09091)">
            <path d="M23.65,5.29L12.24,16.71L8,12.47L9.41,11.06L12.24,13.89L22.24,3.89L23.65,5.29ZM12,20C7.59,20 4,16.41 4,12C4,7.59 7.59,4 12,4C13.57,4 15.04,4.46 16.28,5.25L17.73,3.8C16.1,2.67 14.13,2 12,2C6.48,2 2,6.48 2,12C2,17.52 6.48,22 12,22C13.73,22 15.36,21.56 16.78,20.78L15.28,19.28C14.28,19.74 13.17,20 12,20Z" style="fill:rgb(0,184,70);fill-rule:nonzero;"/>
        </g>
    </g>
</svg>
