<?xml version="1.0" encoding="UTF-8" standalone="no"?>
<!DOCTYPE svg PUBLIC "-//W3C//DTD SVG 1.1//EN" "http://www.w3.org/Graphics/SVG/1.1/DTD/svg11.dtd">
<svg width="100%" height="100%" viewBox="0 0 200 200" version="1.1" xmlns="http://www.w3.org/2000/svg" xmlns:xlink="http://www.w3.org/1999/xlink" xml:space="preserve" xmlns:serif="http://www.serif.com/" style="fill-rule:evenodd;clip-rule:evenodd;stroke-linejoin:round;stroke-miterlimit:2;">
    <rect id="Tavola-da-disegno1" serif:id="Tavola da disegno1" x="0" y="0" width="200" height="200" style="fill:none;"/>
    <g id="content_unarchive" transform="matrix(11.1111,0,0,11.1111,-33.3333,-33.3333)">
        <g id="archive">
            <path id="content_unarchive1" serif:id="content_unarchive" d="M20.55,5.22L19.16,3.54C18.88,3.21 18.47,3 18,3L6,3C5.53,3 5.12,3.21 4.85,3.55L3.46,5.22C3.17,5.57 3,6.01 3,6.5L3,19C3,20.1 3.89,21 5,21L19,21C20.1,21 21,20.1 21,19L21,6.5C21,6.01 20.83,5.57 20.55,5.22ZM12,9.5L17.5,15L14,15L14,17L10,17L10,15L6.5,15L12,9.5ZM5.12,5L5.94,4L17.94,4L18.87,5L5.12,5Z" style="fill:rgb(120,120,120);fill-rule:nonzero;"/>
        </g>
    </g>
</svg>
