<?xml version="1.0" encoding="UTF-8" standalone="no"?>
<!DOCTYPE svg PUBLIC "-//W3C//DTD SVG 1.1//EN" "http://www.w3.org/Graphics/SVG/1.1/DTD/svg11.dtd">
<svg width="100%" height="100%" viewBox="0 0 200 200" version="1.1" xmlns="http://www.w3.org/2000/svg" xmlns:xlink="http://www.w3.org/1999/xlink" xml:space="preserve" xmlns:serif="http://www.serif.com/" style="fill-rule:evenodd;clip-rule:evenodd;stroke-linejoin:round;stroke-miterlimit:2;">
    <rect id="Tavola-da-disegno1" serif:id="Tavola da disegno1" x="0" y="0" width="200" height="200" style="fill:none;"/>
    <g>
        <g id="list-ol" transform="matrix(0.350083,0,0,0.350083,10.3787,12.8162)">
            <path d="M61.77,401L79.27,380.85C82.752,376.968 84.573,371.869 84.34,366.66L84.34,363.35C84.34,356 80.5,352 73,352L16,352C11.611,352 8,355.611 8,360L8,376C8,380.389 11.611,384 16,384L38.83,384C34.951,387.908 31.279,392.017 27.83,396.31L22.22,403.31C18.22,408.38 16.97,413.44 19.42,418.19L20.47,420.12C23.47,425.88 26.76,428 32.72,428L37.45,428C47.78,428 53.39,430.44 53.39,437.09C53.39,441.81 49.19,445.31 39.03,445.31C33.721,445.268 28.47,444.209 23.56,442.19C17.07,438.31 11.82,438.69 7.96,445.31L2.37,454.62C-1.35,460.75 -0.82,466.34 5,470.56C12.71,475.25 25.38,480 42,480C76.16,480 90.5,457.25 90.5,435.88C90.47,421.5 81.38,406.12 61.77,401ZM496,224L176,224C167.223,224 160,231.223 160,240L160,272C160,280.777 167.223,288 176,288L496,288C504.777,288 512,280.777 512,272L512,240C512,231.223 504.777,224 496,224ZM496,64L176,64C167.223,64 160,71.223 160,80L160,112C160,120.777 167.223,128 176,128L496,128C504.777,128 512,120.777 512,112L512,80C512,71.223 504.777,64 496,64ZM496,384L176,384C167.223,384 160,391.223 160,400L160,432C160,440.777 167.223,448 176,448L496,448C504.777,448 512,440.777 512,432L512,400C512,391.223 504.777,384 496,384ZM16,160L80,160C84.389,160 88,156.389 88,152L88,136C88,131.611 84.389,128 80,128L64,128L64,40C64,35.611 60.389,32 56,32L32,32C28.981,32.005 26.211,33.72 24.86,36.42L16.86,52.42C16.304,53.531 16.014,54.757 16.014,56C16.014,60.383 19.617,63.992 24,64L32,64L32,128L16,128C11.611,128 8,131.611 8,136L8,152C8,156.389 11.611,160 16,160ZM12.09,320L80,320C84.389,320 88,316.389 88,312L88,296C88,291.611 84.389,288 80,288L41.32,288C44.61,277.71 89.66,269.32 89.66,231.56C89.66,202.5 64.66,192 45.19,192C23.83,192 11.39,202 4.73,210.75C0.36,216.34 1.73,221.59 7.53,226.12L16.11,233C21.72,237.56 27.11,235.47 32.23,230.56C34.755,228.086 38.156,226.706 41.69,226.72C45.02,226.72 50.97,228.28 50.97,235.47C51,248.19 0,257.31 0,304.59L0,308.59C0,316 5.08,320 12.09,320Z" style="fill:rgb(255,229,65);fill-rule:nonzero;"/>
        </g>
    </g>
</svg>
