<?xml version="1.0" encoding="UTF-8" standalone="no"?>
<!DOCTYPE svg PUBLIC "-//W3C//DTD SVG 1.1//EN" "http://www.w3.org/Graphics/SVG/1.1/DTD/svg11.dtd">
<svg width="100%" height="100%" viewBox="0 0 200 200" version="1.1" xmlns="http://www.w3.org/2000/svg" xmlns:xlink="http://www.w3.org/1999/xlink" xml:space="preserve" xmlns:serif="http://www.serif.com/" style="fill-rule:evenodd;clip-rule:evenodd;stroke-linejoin:round;stroke-miterlimit:2;">
    <rect id="Tavola-da-disegno1" serif:id="Tavola da disegno1" x="0" y="0" width="200" height="200" style="fill:none;"/>
    <clipPath id="_clip1">
        <rect id="Tavola-da-disegno11" serif:id="Tavola da disegno1" x="0" y="0" width="200" height="200"/>
    </clipPath>
    <g clip-path="url(#_clip1)">
        <g id="save" transform="matrix(12.5152,0,0,12.5152,-25.2736,-25.0304)">
            <path d="M15.173,2L4,2C2.899,2 2,2.9 2,4L2,16C2,17.1 2.899,18 4,18L16,18C17.101,18 18,17.1 18,16L18,5.127L15.173,2ZM14,8C14,8.549 13.55,9 13,9L7,9C6.45,9 6,8.549 6,8L6,3L14,3L14,8ZM13,4L11,4L11,8L13,8L13,4Z" style="fill:rgb(255,229,65);fill-rule:nonzero;"/>
        </g>
    </g>
</svg>
