<?xml version="1.0" encoding="UTF-8" standalone="no"?>
<!DOCTYPE svg PUBLIC "-//W3C//DTD SVG 1.1//EN" "http://www.w3.org/Graphics/SVG/1.1/DTD/svg11.dtd">
<svg width="100%" height="100%" viewBox="0 0 200 200" version="1.1" xmlns="http://www.w3.org/2000/svg" xmlns:xlink="http://www.w3.org/1999/xlink" xml:space="preserve" xmlns:serif="http://www.serif.com/" style="fill-rule:evenodd;clip-rule:evenodd;stroke-linejoin:round;stroke-miterlimit:2;">
    <rect id="Tavola-da-disegno1" serif:id="Tavola da disegno1" x="0" y="0" width="200" height="200" style="fill:none;"/>
    <g id="Tavola-da-disegno11" serif:id="Tavola da disegno1">
        <g id="tablet" transform="matrix(10,0,0,10,4.79616e-14,2.84217e-14)">
            <path d="M16,0L4,0C2.9,0 2,0.899 2,2L2,18C2,19.1 2.9,20 4,20L16,20C17.101,20 18,19.1 18,18L18,2C18,0.899 17.101,0 16,0ZM10,19C9.31,19 8.75,18.553 8.75,18C8.75,17.447 9.31,17 10,17C10.689,17 11.25,17.447 11.25,18C11.25,18.553 10.689,19 10,19ZM16,16L4,16L4,2L16,2L16,16Z" style="fill:rgb(255,229,65);fill-rule:nonzero;"/>
        </g>
    </g>
</svg>
